# File created by Blade
# Date/Time:  Wed Apr 08 14:10:43 2015
#---------------------------------------------------------
:version 1.10
:name HOM
:units
  mass 1.0
  length 1.000000
  angle deg
:documentation
     Acclaim Skeleton File
:root
   axis xyz
   order TX TY TZ RX RY RZ
   position 0.000000 0.000000 0.000000
   orientation 0 0 0
:bonedata
   begin
      id 1
      name Spine_dum
      direction 0.000000 1.000000 0.000000
      length 4.885285
      axis 0.0 0.0 0.0 xyz
   end
   begin
      id 2
      name LeftUpLeg_dum
      direction 1.000000 0.000000 0.000000
      length 2.672193
      axis 0.0 0.0 0.0 xyz
   end
   begin
      id 3
      name RightUpLeg_dum
      direction -1.000000 0.000000 0.000000
      length 2.672193
      axis 0.0 0.0 0.0 xyz
   end
   begin
      id 4
      name Spine
      direction 0.000000 1.000000 0.000000
      length 0.000000
      axis 0.0 0.0 0.0 xyz
      dof rx ry rz
   end
   begin
      id 5
      name Spine_dum1
      direction 0.000000 1.000000 0.000000
      length 16.494159
      axis 0.0 0.0 0.0 xyz
   end
   begin
      id 6
      name Spine_dum2
      direction 0.000000 1.000000 0.000000
      length 10.663448
      axis 0.0 0.0 0.0 xyz
   end
   begin
      id 7
      name Spine_dum3
      direction 0.000000 1.000000 0.000000
      length 10.663448
      axis 0.0 0.0 0.0 xyz
   end
   begin
      id 8
      name Head
      direction 0.000000 1.000000 0.000000
      length 4.527550
      axis 0.0 0.0 0.0 xyz
      dof rx ry rz
   end
   begin
      id 9
      name LeftShoulder
      direction 1.000000 0.000000 0.000000
      length 7.531907
      axis 0.0 0.0 -90.0 xyz
      dof rx ry rz
   end
   begin
      id 10
      name LeftArm
      direction 1.000000 0.000000 0.000000
      length 10.229199
      axis 0.0 0.0 -90.0 xyz
      dof rx ry rz
   end
   begin
      id 11
      name LeftForeArm
      direction 1.000000 0.000000 0.000000
      length 8.673495
      axis 0.0 0.0 -90.0 xyz
      dof ry rz rx
   end
   begin
      id 12
      name LeftHand
      direction 0.000000 0.000000 0.000000
      length 0.000000
      axis 0.0 0.0 -90.0 xyz
      dof rx ry rz
   end
   begin
      id 13
      name LeftHand_dum1
      direction 0.000000 0.000000 0.000000
      length 0.000000
      axis 0.0 0.0 -90.0 xyz
   end
   begin
      id 14
      name LeftHand_dum2
      direction 1.000000 0.000000 0.000000
      length 3.937000
      axis 0.0 0.0 -90.0 xyz
   end
   begin
      id 15
      name LeftHandThumb1
      direction 0.000000 0.000000 1.000000
      length 3.937000
      axis 0.0 0.0 -90.0 xyz
      dof rx rz ry
   end
   begin
      id 16
      name RightShoulder
      direction -1.000000 0.000000 0.000000
      length 7.531907
      axis 0.0 0.0 90.0 xyz
      dof rx ry rz
   end
   begin
      id 17
      name RightArm
      direction -1.000000 0.000000 0.000000
      length 10.229199
      axis 0.0 0.0 90.0 xyz
      dof rx ry rz
   end
   begin
      id 18
      name RightForeArm
      direction -1.000000 0.000000 0.000000
      length 8.673495
      axis 0.0 0.0 90.0 xyz
      dof ry rz rx
   end
   begin
      id 19
      name RightHand
      direction 0.000000 0.000000 0.000000
      length 0.000000
      axis 0.0 0.0 90.0 xyz
      dof rx ry rz
   end
   begin
      id 20
      name RightHand_dum1
      direction 0.000000 0.000000 0.000000
      length 0.000000
      axis 0.0 0.0 90.0 xyz
   end
   begin
      id 21
      name RightHand_dum2
      direction -1.000000 0.000000 0.000000
      length 3.937000
      axis 0.0 0.0 90.0 xyz
   end
   begin
      id 22
      name RightHandThumb1
      direction 0.000000 0.000000 1.000000
      length 3.937000
      axis 0.0 0.0 90.0 xyz
      dof rx rz ry
   end
   begin
      id 23
      name LeftUpLeg
      direction 0.000000 -1.000000 0.000000
      length 16.263388
      axis 0.0 0.0 0.0 xyz
      dof rx ry rz
   end
   begin
      id 24
      name LeftLeg
      direction 0.000000 -1.000000 0.000000
      length 14.328163
      axis 0.0 0.0 0.0 xyz
      dof rx ry rz
   end
   begin
      id 25
      name LeftFoot
      direction 0.000000 -0.258819 0.965926
      length 5.031290
      axis 15.0 0.0 0.0 xyz
      dof rx ry rz
   end
   begin
      id 26
      name LeftToeBase
      direction 0.000000 0.000000 1.000000
      length 2.952750
      axis 0.0 0.0 0.0 xyz
      dof rx ry rz
   end
   begin
      id 27
      name RightUpLeg
      direction 0.000000 -1.000000 0.000000
      length 16.263388
      axis 0.0 0.0 0.0 xyz
      dof rx ry rz
   end
   begin
      id 28
      name RightLeg
      direction 0.000000 -1.000000 0.000000
      length 14.328163
      axis 0.0 0.0 0.0 xyz
      dof rx ry rz
   end
   begin
      id 29
      name RightFoot
      direction 0.000000 -0.258819 0.965926
      length 5.031290
      axis 15.0 0.0 0.0 xyz
      dof rx ry rz
   end
   begin
      id 30
      name RightToeBase
      direction 0.000000 0.000000 1.000000
      length 2.952750
      axis 0.0 0.0 0.0 xyz
      dof rx ry rz
   end
:hierarchy
   begin
      root Spine_dum LeftUpLeg_dum RightUpLeg_dum
      Spine_dum Spine
      LeftUpLeg_dum LeftUpLeg
      RightUpLeg_dum RightUpLeg
      Spine Spine_dum1 Spine_dum2 Spine_dum3
      Spine_dum1 Head
      Spine_dum2 LeftShoulder
      Spine_dum3 RightShoulder
      LeftShoulder LeftArm
      LeftArm LeftForeArm
      LeftForeArm LeftHand
      LeftHand LeftHand_dum1 LeftHand_dum2
      LeftHand_dum1 LeftHandThumb1
      RightShoulder RightArm
      RightArm RightForeArm
      RightForeArm RightHand
      RightHand RightHand_dum1 RightHand_dum2
      RightHand_dum1 RightHandThumb1
      LeftUpLeg LeftLeg
      LeftLeg LeftFoot
      LeftFoot LeftToeBase
      RightUpLeg RightLeg
      RightLeg RightFoot
      RightFoot RightToeBase
   end

# File created by Blade
# Date/Time:  Wed Apr 08 14:10:35 2015
# Frame Rate: 120.000 fps
#------------------------------------------------------
:FULLY-SPECIFIED
:DEGREES
31
root -0.655447 32.781909 -17.092005 5.097801 1.981506 -0.688203
Spine -7.120285 -6.657229 0.206862
Head 13.766996 -3.263405 -3.070882
LeftShoulder -20.717983 41.341319 19.004667
LeftArm 60.088286 -54.436522 -64.581781
LeftForeArm 7.994294 -0.000000 -4.042186
LeftHand 6.084193 0.000000 6.250341
LeftHandThumb1 -26.253704 0.000000 33.147579
RightShoulder -4.993975 3.604230 -30.401079
RightArm 12.402280 14.740504 42.590228
RightForeArm -12.917517 0.000000 1.973108
RightHand 2.610546 0.000000 1.187065
RightHandThumb1 -24.326973 -0.000000 -32.862282
LeftUpLeg -8.306396 -9.567960 4.235092
LeftLeg 13.296304 -0.000000 -0.000000
LeftFoot -11.683203 10.595110 -19.221296
LeftToeBase -10.165595 -0.000000 0.000000
RightUpLeg 1.792984 3.181039 4.249384
RightLeg -7.655809 -0.000000 0.000000
RightFoot -3.515004 -14.336580 7.439401
RightToeBase -4.093701 -0.000000 0.000000
32
root -0.666191 32.781654 -17.095424 5.072900 2.004390 -0.715234
Spine -7.061694 -6.665595 0.241735
Head 13.814855 -3.246066 -3.050642
LeftShoulder -20.712742 41.385796 18.994309
LeftArm 60.179039 -54.434458 -64.690458
LeftForeArm 8.042694 -0.000000 -4.043650
LeftHand 6.082146 -0.000000 6.177287
LeftHandThumb1 -26.253704 0.000000 33.147579
RightShoulder -4.981222 3.579745 -30.390413
RightArm 12.415091 14.730972 42.599867
RightForeArm -12.909516 -0.000000 1.996369
RightHand 2.685555 -0.000000 1.192442
RightHandThumb1 -24.326973 -0.000000 -32.862282
LeftUpLeg -8.427946 -9.643178 4.287328
LeftLeg 13.572642 -0.000000 -0.000000
LeftFoot -11.729513 10.583173 -19.299185
LeftToeBase -10.227809 -0.000000 0.000000
RightUpLeg 1.793901 3.164776 4.297150
RightLeg -7.625295 -0.000000 0.000000
RightFoot -3.497974 -14.326498 7.439792
RightToeBase -4.166217 -0.000000 0.000000
33
root -0.676558 32.780648 -17.098123 5.038093 2.012840 -0.753960
Spine -6.998278 -6.671193 0.289375
Head 13.874187 -3.243091 -3.033411
LeftShoulder -20.716424 41.407757 18.994264
LeftArm 60.144798 -54.358683 -64.633418
LeftForeArm 7.953758 -0.000000 -4.103679
LeftHand 6.079030 -0.000000 6.121908
LeftHandThumb1 -26.253704 0.000000 33.147579
RightShoulder -4.966150 3.549815 -30.394210
RightArm 12.453245 14.741350 42.637003
RightForeArm -12.975063 0.000000 2.003284
RightHand 2.779036 0.000000 1.183214
RightHandThumb1 -24.326973 -0.000000 -32.862282
LeftUpLeg -8.510991 -9.770165 4.349798
LeftLeg 13.796700 -0.000000 -0.000000
LeftFoot -11.792252 10.637931 -19.367650
LeftToeBase -10.305983 -0.000000 0.000000
RightUpLeg 1.865152 3.224190 4.356080
RightLeg -7.717890 -0.000000 0.000000
RightFoot -3.409298 -14.398960 7.389562
RightToeBase -4.175843 -0.000000 0.000000
34
root -0.688279 32.779535 -17.101480 5.026930 2.023367 -0.785609
Spine -6.967289 -6.671913 0.320042
Head 13.973272 -3.256800 -2.988376
LeftShoulder -20.669553 41.403425 19.051552
LeftArm 60.123295 -54.329834 -64.665093
LeftForeArm 7.934659 -0.000000 -4.127225
LeftHand 6.070771 -0.000000 6.092287
LeftHandThumb1 -26.253704 0.000000 33.147579
RightShoulder -4.959605 3.529231 -30.398289
RightArm 12.488899 14.707714 42.672351
RightForeArm -12.938017 -0.000000 1.973684
RightHand 2.768434 -0.000000 1.207651
RightHandThumb1 -24.326973 -0.000000 -32.862282
LeftUpLeg -8.609325 -9.810052 4.409172
LeftLeg 13.994988 -0.000000 -0.000000
LeftFoot -11.826505 10.626095 -19.432672
LeftToeBase -10.370229 -0.000000 0.000000
RightUpLeg 1.876685 3.254962 4.408141
RightLeg -7.739705 -0.000000 0.000000
RightFoot -3.375495 -14.435740 7.363562
RightToeBase -4.206000 -0.000000 0.000000
35
root -0.699613 32.778116 -17.103353 5.007684 2.029700 -0.822959
Spine -6.928573 -6.668015 0.356496
Head 14.070776 -3.248928 -2.947566
LeftShoulder -20.643733 41.395539 19.090684
LeftArm 60.164365 -54.313064 -64.731394
LeftForeArm 7.912192 0.000000 -4.187388
LeftHand 6.168892 -0.000000 5.932004
LeftHandThumb1 -26.253704 0.000000 33.147579
RightShoulder -4.963079 3.533409 -30.403234
RightArm 12.522346 14.651141 42.697402
RightForeArm -12.913722 -0.000000 1.934420
RightHand 2.772325 -0.000000 1.277062
RightHandThumb1 -24.326973 -0.000000 -32.862282
LeftUpLeg -8.697226 -9.846382 4.470624
LeftLeg 14.196019 -0.000000 -0.000000
LeftFoot -11.861064 10.621475 -19.486764
LeftToeBase -10.449412 -0.000000 0.000000
RightUpLeg 1.880799 3.212741 4.462993
RightLeg -7.718915 -0.000000 0.000000
RightFoot -3.382464 -14.373628 7.396096
RightToeBase -4.201784 -0.000000 0.000000
36
root -0.706554 32.776580 -17.103257 4.991612 2.025522 -0.828562
Spine -6.905420 -6.644681 0.365723
Head 14.197744 -3.271745 -2.934714
LeftShoulder -20.589887 41.360534 19.148969
LeftArm 60.160255 -54.295346 -64.763232
LeftForeArm 7.908875 -0.000000 -4.243586
LeftHand 6.168815 -0.000000 5.817698
LeftHandThumb1 -26.253704 0.000000 33.147579
RightShoulder -4.973372 3.543842 -30.407924
RightArm 12.545573 14.578639 42.698898
RightForeArm -12.892614 -0.000000 1.873865
RightHand 2.743307 -0.000000 1.369668
RightHandThumb1 -24.326973 -0.000000 -32.862282
LeftUpLeg -8.806455 -9.635795 4.484238
LeftLeg 14.443891 -0.000000 -0.000000
LeftFoot -11.809136 10.397008 -19.438362
LeftToeBase -10.580168 -0.000000 0.000000
RightUpLeg 1.914184 3.208704 4.475009
RightLeg -7.756076 -0.000000 0.000000
RightFoot -3.372319 -14.331878 7.453468
RightToeBase -4.223611 -0.000000 0.000000
37
root -0.717013 32.775654 -17.103806 4.987402 2.019474 -0.836927
Spine -6.901130 -6.635989 0.362694
Head 14.345801 -3.263933 -2.883630
LeftShoulder -20.574818 41.375157 19.184487
LeftArm 60.248089 -54.302617 -64.845479
LeftForeArm 7.923152 -0.000000 -4.327045
LeftHand 6.049007 -0.000000 5.564964
LeftHandThumb1 -26.253704 0.000000 33.147579
RightShoulder -4.955463 3.559490 -30.394619
RightArm 12.554532 14.543772 42.699265
RightForeArm -12.895219 -0.000000 1.798106
RightHand 2.696337 -0.000000 1.404668
RightHandThumb1 -24.326973 -0.000000 -32.862282
LeftUpLeg -8.886106 -9.567546 4.509688
LeftLeg 14.604397 -0.000000 -0.000000
LeftFoot -11.788528 10.335827 -19.444810
LeftToeBase -10.699407 -0.000000 0.000000
RightUpLeg 1.938727 3.221925 4.495251
RightLeg -7.800703 -0.000000 0.000000
RightFoot -3.343617 -14.311852 7.451255
RightToeBase -4.202849 -0.000000 0.000000
38
root -0.727591 32.774289 -17.102736 4.978388 2.024339 -0.841612
Spine -6.897298 -6.627694 0.353777
Head 14.511309 -3.269197 -2.839513
LeftShoulder -20.526538 41.350211 19.245923
LeftArm 60.219729 -54.297999 -64.809679
LeftForeArm 8.006716 -0.000000 -4.399346
LeftHand 6.000441 -0.000000 5.487639
LeftHandThumb1 -26.253704 0.000000 33.147579
RightShoulder -4.957267 3.564339 -30.391242
RightArm 12.575243 14.531204 42.715353
RightForeArm -12.871663 -0.000000 1.716774
RightHand 2.617231 -0.000000 1.587505
RightHandThumb1 -24.326973 -0.000000 -32.862282
LeftUpLeg -8.934575 -9.580182 4.533281
LeftLeg 14.716210 -0.000000 -0.000000
LeftFoot -11.801128 10.333319 -19.487811
LeftToeBase -10.781005 -0.000000 0.000000
RightUpLeg 1.970815 3.194598 4.515538
RightLeg -7.846498 -0.000000 0.000000
RightFoot -3.315060 -14.263638 7.453924
RightToeBase -4.204253 -0.000000 0.000000
39
root -0.742323 32.773113 -17.103383 4.998156 2.039223 -0.857845
Spine -6.925333 -6.640653 0.346539
Head 14.686413 -3.256193 -2.771186
LeftShoulder -20.481324 41.325835 19.315510
LeftArm 60.139581 -54.294059 -64.714522
LeftForeArm 8.063826 -0.000000 -4.461124
LeftHand 5.979131 -0.000000 5.266583
LeftHandThumb1 -26.253704 0.000000 33.147579
RightShoulder -4.940165 3.602371 -30.372007
RightArm 12.557153 14.529978 42.717360
RightForeArm -12.906379 -0.000000 1.634432
RightHand 2.611271 0.000000 1.516571
RightHandThumb1 -24.326973 -0.000000 -32.862282
LeftUpLeg -8.969533 -9.777450 4.585159
LeftLeg 14.738428 -0.000000 -0.000000
LeftFoot -11.862466 10.493677 -19.579429
LeftToeBase -10.778373 -0.000000 0.000000
RightUpLeg 1.979868 3.178541 4.556466
RightLeg -7.910812 -0.000000 0.000000
RightFoot -3.271729 -14.254604 7.486601
RightToeBase -4.265348 -0.000000 0.000000
40
root -0.753961 32.772406 -17.102965 5.019471 2.033829 -0.856976
Spine -6.959499 -6.633856 0.323812
Head 14.865676 -3.237688 -2.710869
LeftShoulder -20.449297 41.341574 19.370426
LeftArm 60.109361 -54.310318 -64.667126
LeftForeArm 8.121902 -0.000000 -4.498040
LeftHand 5.973996 0.000000 5.092448
LeftHandThumb1 -26.253704 0.000000 33.147579
RightShoulder -4.923493 3.618225 -30.359357
RightArm 12.537754 14.527310 42.713383
RightForeArm -12.881640 -0.000000 1.566472
RightHand 2.571157 -0.000000 1.671154
RightHandThumb1 -24.326973 -0.000000 -32.862282
LeftUpLeg -9.019330 -9.774926 4.609631
LeftLeg 14.798015 -0.000000 -0.000000
LeftFoot -11.865273 10.496648 -19.613727
LeftToeBase -10.787628 -0.000000 0.000000
RightUpLeg 1.981251 3.151158 4.572725
RightLeg -7.955088 -0.000000 0.000000
RightFoot -3.240275 -14.215327 7.493783
RightToeBase -4.292375 -0.000000 0.000000
41
root -0.764801 32.772150 -17.100950 5.033882 2.022595 -0.847331
Spine -6.990352 -6.629250 0.297820
Head 15.047295 -3.203519 -2.673089
LeftShoulder -20.429423 41.365950 19.396928
LeftArm 59.998381 -54.314958 -64.513115
LeftForeArm 8.163756 -0.000000 -4.517543
LeftHand 5.962859 -0.000000 4.991532
LeftHandThumb1 -26.253704 0.000000 33.147579
RightShoulder -4.896659 3.634677 -30.339677
RightArm 12.509518 14.557099 42.687337
RightForeArm -12.918221 -0.000000 1.497367
RightHand 2.613245 -0.000000 1.589570
RightHandThumb1 -24.326973 -0.000000 -32.862282
LeftUpLeg -9.043825 -9.723568 4.618219
LeftLeg 14.825849 -0.000000 -0.000000
LeftFoot -11.836909 10.473895 -19.595458
LeftToeBase -10.859743 -0.000000 0.000000
RightUpLeg 1.995526 3.111800 4.577070
RightLeg -8.005821 -0.000000 0.000000
RightFoot -3.222176 -14.136930 7.524720
RightToeBase -4.264996 -0.000000 0.000000
